<svg xmlns="http://www.w3.org/2000/svg" viewBox="0 0 893 465" role="img" aria-labelledby="title desc">
<title id="title">Kumulativní četnosti · vybraná buňka F6</title>
<desc id="desc">Názorná rekonstrukce excelového listu. =SUMA($C$5:C6). F6 sčítá C5 a C6: 4 + 10 = 14 účastníků s odpovědí nejvýše „trochu“. G6 = F6/$C$2 → 14/36. Zobrazeno 0,389; výpočet používá celý podíl.</desc>
<style>text{font-family:Arial,sans-serif;fill:#223744;font-size:18px}.small{font-size:16px}.label{font-weight:700}.white{fill:white}.mono{font-family:Consolas,monospace;font-size:16px}</style>
<rect x="0" y="0" width="893" height="465" fill="#fff" stroke="#cad5da" stroke-width="1"/>
<rect x="0" y="0" width="893" height="42" fill="#234f62" stroke="#cad5da" stroke-width="1"/>
<text x="18" y="28" class="label white" text-anchor="start">Kumulativní četnosti · vybraná buňka F6</text>
<rect x="12" y="54" width="64" height="34" fill="#edf5f1" stroke="#cad5da" stroke-width="1"/>
<text x="44" y="77" class="label" text-anchor="middle">F6</text>
<text x="93" y="77" class="small" text-anchor="start">fx</text>
<rect x="120" y="54" width="761" height="34" fill="#fff" stroke="#cad5da" stroke-width="1"/>
<text x="130" y="77" class="mono" text-anchor="start">=SUMA($C$5:C6)</text>
<text x="17" y="119" class="small" text-anchor="start">Cetnosti!C2 = 36 platných údajů</text>
<rect x="0" y="136" width="48" height="34" fill="#edf1f3" stroke="#cad5da" stroke-width="1"/>
<rect x="48" y="136" width="55" height="34" fill="#edf1f3" stroke="#cad5da" stroke-width="1"/>
<text x="75.5" y="159" class="small" text-anchor="middle">A</text>
<rect x="103" y="136" width="145" height="34" fill="#edf1f3" stroke="#cad5da" stroke-width="1"/>
<text x="175.5" y="159" class="small" text-anchor="middle">B</text>
<rect x="248" y="136" width="90" height="34" fill="#edf1f3" stroke="#cad5da" stroke-width="1"/>
<text x="293.0" y="159" class="small" text-anchor="middle">C</text>
<rect x="338" y="136" width="100" height="34" fill="#edf1f3" stroke="#cad5da" stroke-width="1"/>
<text x="388.0" y="159" class="small" text-anchor="middle">D</text>
<rect x="438" y="136" width="100" height="34" fill="#edf1f3" stroke="#cad5da" stroke-width="1"/>
<text x="488.0" y="159" class="small" text-anchor="middle">E</text>
<rect x="538" y="136" width="120" height="34" fill="#edf1f3" stroke="#cad5da" stroke-width="1"/>
<text x="598.0" y="159" class="small" text-anchor="middle">F</text>
<rect x="658" y="136" width="120" height="34" fill="#edf1f3" stroke="#cad5da" stroke-width="1"/>
<text x="718.0" y="159" class="small" text-anchor="middle">G</text>
<rect x="778" y="136" width="115" height="34" fill="#edf1f3" stroke="#cad5da" stroke-width="1"/>
<text x="835.5" y="159" class="small" text-anchor="middle">H</text>
<rect x="0" y="170" width="48" height="34" fill="#edf1f3" stroke="#cad5da" stroke-width="1"/>
<text x="24" y="193" class="small" text-anchor="middle">4</text>
<rect x="48" y="170" width="55" height="34" fill="#234f62" stroke="#cad5da" stroke-width="1"/>
<text x="75.5" y="193" class="small white label" text-anchor="middle">Kód</text>
<rect x="103" y="170" width="145" height="34" fill="#234f62" stroke="#cad5da" stroke-width="1"/>
<text x="175.5" y="193" class="small white label" text-anchor="middle">Odpočatost</text>
<rect x="248" y="170" width="90" height="34" fill="#234f62" stroke="#cad5da" stroke-width="1"/>
<text x="293.0" y="193" class="small white label" text-anchor="middle">Četnost</text>
<rect x="338" y="170" width="100" height="34" fill="#234f62" stroke="#cad5da" stroke-width="1"/>
<text x="388.0" y="193" class="small white label" text-anchor="middle">Podíl</text>
<rect x="438" y="170" width="100" height="34" fill="#234f62" stroke="#cad5da" stroke-width="1"/>
<text x="488.0" y="193" class="small white label" text-anchor="middle">Procenta</text>
<rect x="538" y="170" width="120" height="34" fill="#234f62" stroke="#cad5da" stroke-width="1"/>
<text x="598.0" y="193" class="small white label" text-anchor="middle">Kumul. počet</text>
<rect x="658" y="170" width="120" height="34" fill="#234f62" stroke="#cad5da" stroke-width="1"/>
<text x="718.0" y="193" class="small white label" text-anchor="middle">Kumul. podíl</text>
<rect x="778" y="170" width="115" height="34" fill="#234f62" stroke="#cad5da" stroke-width="1"/>
<text x="835.5" y="193" class="small white label" text-anchor="middle">Kumul. %</text>
<rect x="0" y="204" width="48" height="34" fill="#edf1f3" stroke="#cad5da" stroke-width="1"/>
<text x="24" y="227" class="small" text-anchor="middle">5</text>
<rect x="48" y="204" width="55" height="34" fill="#fff" stroke="#cad5da" stroke-width="1"/>
<text x="93" y="227" class="" text-anchor="end">1</text>
<rect x="103" y="204" width="145" height="34" fill="#fff" stroke="#cad5da" stroke-width="1"/>
<text x="113" y="227" class="" text-anchor="start">Vůbec</text>
<rect x="248" y="204" width="90" height="34" fill="#fff" stroke="#cad5da" stroke-width="1"/>
<text x="328" y="227" class="" text-anchor="end">4</text>
<rect x="338" y="204" width="100" height="34" fill="#fff" stroke="#cad5da" stroke-width="1"/>
<text x="428" y="227" class="" text-anchor="end">0,111</text>
<rect x="438" y="204" width="100" height="34" fill="#fff" stroke="#cad5da" stroke-width="1"/>
<text x="528" y="227" class="" text-anchor="end">11,1 %</text>
<rect x="538" y="204" width="120" height="34" fill="#fff" stroke="#cad5da" stroke-width="1"/>
<text x="648" y="227" class="" text-anchor="end">4</text>
<rect x="658" y="204" width="120" height="34" fill="#fff" stroke="#cad5da" stroke-width="1"/>
<text x="768" y="227" class="" text-anchor="end">0,111</text>
<rect x="778" y="204" width="115" height="34" fill="#fff" stroke="#cad5da" stroke-width="1"/>
<text x="883" y="227" class="" text-anchor="end">11,1 %</text>
<rect x="0" y="238" width="48" height="34" fill="#edf1f3" stroke="#cad5da" stroke-width="1"/>
<text x="24" y="261" class="small" text-anchor="middle">6</text>
<rect x="48" y="238" width="55" height="34" fill="#fff" stroke="#cad5da" stroke-width="1"/>
<text x="93" y="261" class="" text-anchor="end">2</text>
<rect x="103" y="238" width="145" height="34" fill="#fff" stroke="#cad5da" stroke-width="1"/>
<text x="113" y="261" class="" text-anchor="start">Trochu</text>
<rect x="248" y="238" width="90" height="34" fill="#fff" stroke="#cad5da" stroke-width="1"/>
<text x="328" y="261" class="" text-anchor="end">10</text>
<rect x="338" y="238" width="100" height="34" fill="#fff" stroke="#cad5da" stroke-width="1"/>
<text x="428" y="261" class="" text-anchor="end">0,278</text>
<rect x="438" y="238" width="100" height="34" fill="#fff" stroke="#cad5da" stroke-width="1"/>
<text x="528" y="261" class="" text-anchor="end">27,8 %</text>
<rect x="538" y="238" width="120" height="34" fill="#fff" stroke="#cad5da" stroke-width="1"/>
<text x="648" y="261" class="" text-anchor="end">14</text>
<rect x="658" y="238" width="120" height="34" fill="#fff" stroke="#cad5da" stroke-width="1"/>
<text x="768" y="261" class="" text-anchor="end">0,389</text>
<rect x="778" y="238" width="115" height="34" fill="#fff" stroke="#cad5da" stroke-width="1"/>
<text x="883" y="261" class="" text-anchor="end">38,9 %</text>
<rect x="0" y="272" width="48" height="34" fill="#edf1f3" stroke="#cad5da" stroke-width="1"/>
<text x="24" y="295" class="small" text-anchor="middle">7</text>
<rect x="48" y="272" width="55" height="34" fill="#fff" stroke="#cad5da" stroke-width="1"/>
<text x="93" y="295" class="" text-anchor="end">3</text>
<rect x="103" y="272" width="145" height="34" fill="#fff" stroke="#cad5da" stroke-width="1"/>
<text x="113" y="295" class="" text-anchor="start">Dost</text>
<rect x="248" y="272" width="90" height="34" fill="#fff" stroke="#cad5da" stroke-width="1"/>
<text x="328" y="295" class="" text-anchor="end">14</text>
<rect x="338" y="272" width="100" height="34" fill="#fff" stroke="#cad5da" stroke-width="1"/>
<text x="428" y="295" class="" text-anchor="end">0,389</text>
<rect x="438" y="272" width="100" height="34" fill="#fff" stroke="#cad5da" stroke-width="1"/>
<text x="528" y="295" class="" text-anchor="end">38,9 %</text>
<rect x="538" y="272" width="120" height="34" fill="#fff" stroke="#cad5da" stroke-width="1"/>
<text x="648" y="295" class="" text-anchor="end">28</text>
<rect x="658" y="272" width="120" height="34" fill="#fff" stroke="#cad5da" stroke-width="1"/>
<text x="768" y="295" class="" text-anchor="end">0,778</text>
<rect x="778" y="272" width="115" height="34" fill="#fff" stroke="#cad5da" stroke-width="1"/>
<text x="883" y="295" class="" text-anchor="end">77,8 %</text>
<rect x="0" y="306" width="48" height="34" fill="#edf1f3" stroke="#cad5da" stroke-width="1"/>
<text x="24" y="329" class="small" text-anchor="middle">8</text>
<rect x="48" y="306" width="55" height="34" fill="#fff" stroke="#cad5da" stroke-width="1"/>
<text x="93" y="329" class="" text-anchor="end">4</text>
<rect x="103" y="306" width="145" height="34" fill="#fff" stroke="#cad5da" stroke-width="1"/>
<text x="113" y="329" class="" text-anchor="start">Zcela</text>
<rect x="248" y="306" width="90" height="34" fill="#fff" stroke="#cad5da" stroke-width="1"/>
<text x="328" y="329" class="" text-anchor="end">8</text>
<rect x="338" y="306" width="100" height="34" fill="#fff" stroke="#cad5da" stroke-width="1"/>
<text x="428" y="329" class="" text-anchor="end">0,222</text>
<rect x="438" y="306" width="100" height="34" fill="#fff" stroke="#cad5da" stroke-width="1"/>
<text x="528" y="329" class="" text-anchor="end">22,2 %</text>
<rect x="538" y="306" width="120" height="34" fill="#fff" stroke="#cad5da" stroke-width="1"/>
<text x="648" y="329" class="" text-anchor="end">36</text>
<rect x="658" y="306" width="120" height="34" fill="#fff" stroke="#cad5da" stroke-width="1"/>
<text x="768" y="329" class="" text-anchor="end">1,000</text>
<rect x="778" y="306" width="115" height="34" fill="#fff" stroke="#cad5da" stroke-width="1"/>
<text x="883" y="329" class="" text-anchor="end">100,0 %</text>
<rect x="539" y="239" width="118" height="32" fill="none" stroke="#168154" stroke-width="3"/>
<rect x="249" y="205" width="88" height="32" fill="none" stroke="#267888" stroke-width="3"/>
<rect x="249" y="239" width="88" height="32" fill="none" stroke="#267888" stroke-width="3"/>
<text x="16" y="371" class="small" text-anchor="start">F6 sčítá C5 a C6: 4 + 10 = 14 účastníků s odpovědí nejvýše „trochu“.</text>
<text x="16" y="396" class="small" text-anchor="start">G6 = F6/$C$2 → 14/36. Zobrazeno 0,389; výpočet používá celý podíl.</text>
<rect x="0" y="433" width="893" height="32" fill="#edf1f3" stroke="#cad5da" stroke-width="1"/>
<text x="20" y="455" class="small" text-anchor="start">Data     |     Cetnosti     |     Histogram          Zobrazený list: Cetnosti</text>
</svg>