<svg xmlns="http://www.w3.org/2000/svg" viewBox="0 0 908 535" role="img" aria-labelledby="title desc">
<title id="title">Intervalové četnosti · vybraná buňka D5</title>
<desc id="desc">Názorná rekonstrukce excelového listu. =COUNTIFS(Data!$B$2:$B$37;&quot;&gt;&quot;&amp;A5;Data!$B$2:$B$37;&quot;&lt;=&quot;&amp;B5). Obě podmínky současně: více než dolní mez a nejvýše horní mez. Hodnota přesně 5 patří do prvního intervalu. Tři prázdné buňky nejsou započítány.</desc>
<style>text{font-family:Arial,sans-serif;fill:#223744;font-size:18px}.small{font-size:16px}.label{font-weight:700}.white{fill:white}.mono{font-family:Consolas,monospace;font-size:16px}</style>
<rect x="0" y="0" width="908" height="535" fill="#fff" stroke="#cad5da" stroke-width="1"/>
<rect x="0" y="0" width="908" height="42" fill="#234f62" stroke="#cad5da" stroke-width="1"/>
<text x="18" y="28" class="label white" text-anchor="start">Intervalové četnosti · vybraná buňka D5</text>
<rect x="12" y="54" width="64" height="34" fill="#edf5f1" stroke="#cad5da" stroke-width="1"/>
<text x="44" y="77" class="label" text-anchor="middle">D5</text>
<text x="93" y="77" class="small" text-anchor="start">fx</text>
<rect x="120" y="54" width="776" height="34" fill="#fff" stroke="#cad5da" stroke-width="1"/>
<text x="130" y="77" class="mono" text-anchor="start">=COUNTIFS(Data!$B$2:$B$37;&quot;&gt;&quot;&amp;A5;Data!$B$2:$B$37;&quot;&lt;=&quot;&amp;B5)</text>
<text x="17" y="119" class="small" text-anchor="start">Histogram!C2 = 33 platných údajů</text>
<rect x="0" y="136" width="48" height="34" fill="#edf1f3" stroke="#cad5da" stroke-width="1"/>
<rect x="48" y="136" width="132" height="34" fill="#edf1f3" stroke="#cad5da" stroke-width="1"/>
<text x="114.0" y="159" class="small" text-anchor="middle">A</text>
<rect x="180" y="136" width="132" height="34" fill="#edf1f3" stroke="#cad5da" stroke-width="1"/>
<text x="246.0" y="159" class="small" text-anchor="middle">B</text>
<rect x="312" y="136" width="194" height="34" fill="#edf1f3" stroke="#cad5da" stroke-width="1"/>
<text x="409.0" y="159" class="small" text-anchor="middle">C</text>
<rect x="506" y="136" width="134" height="34" fill="#edf1f3" stroke="#cad5da" stroke-width="1"/>
<text x="573.0" y="159" class="small" text-anchor="middle">D</text>
<rect x="640" y="136" width="134" height="34" fill="#edf1f3" stroke="#cad5da" stroke-width="1"/>
<text x="707.0" y="159" class="small" text-anchor="middle">E</text>
<rect x="774" y="136" width="134" height="34" fill="#edf1f3" stroke="#cad5da" stroke-width="1"/>
<text x="841.0" y="159" class="small" text-anchor="middle">F</text>
<rect x="0" y="170" width="48" height="34" fill="#edf1f3" stroke="#cad5da" stroke-width="1"/>
<text x="24" y="193" class="small" text-anchor="middle">4</text>
<rect x="48" y="170" width="132" height="34" fill="#234f62" stroke="#cad5da" stroke-width="1"/>
<text x="114.0" y="193" class="small white label" text-anchor="middle">Dolní mez</text>
<rect x="180" y="170" width="132" height="34" fill="#234f62" stroke="#cad5da" stroke-width="1"/>
<text x="246.0" y="193" class="small white label" text-anchor="middle">Horní mez</text>
<rect x="312" y="170" width="194" height="34" fill="#234f62" stroke="#cad5da" stroke-width="1"/>
<text x="409.0" y="193" class="small white label" text-anchor="middle">Interval (h)</text>
<rect x="506" y="170" width="134" height="34" fill="#234f62" stroke="#cad5da" stroke-width="1"/>
<text x="573.0" y="193" class="small white label" text-anchor="middle">Četnost</text>
<rect x="640" y="170" width="134" height="34" fill="#234f62" stroke="#cad5da" stroke-width="1"/>
<text x="707.0" y="193" class="small white label" text-anchor="middle">Podíl</text>
<rect x="774" y="170" width="134" height="34" fill="#234f62" stroke="#cad5da" stroke-width="1"/>
<text x="841.0" y="193" class="small white label" text-anchor="middle">Procenta</text>
<rect x="0" y="204" width="48" height="34" fill="#edf1f3" stroke="#cad5da" stroke-width="1"/>
<text x="24" y="227" class="small" text-anchor="middle">5</text>
<rect x="48" y="204" width="132" height="34" fill="#fff" stroke="#cad5da" stroke-width="1"/>
<text x="170" y="227" class="" text-anchor="end">4</text>
<rect x="180" y="204" width="132" height="34" fill="#fff" stroke="#cad5da" stroke-width="1"/>
<text x="302" y="227" class="" text-anchor="end">5</text>
<rect x="312" y="204" width="194" height="34" fill="#fff" stroke="#cad5da" stroke-width="1"/>
<text x="496" y="227" class="" text-anchor="end">&gt; 4 až 5</text>
<rect x="506" y="204" width="134" height="34" fill="#fff" stroke="#cad5da" stroke-width="1"/>
<text x="630" y="227" class="" text-anchor="end">3</text>
<rect x="640" y="204" width="134" height="34" fill="#fff" stroke="#cad5da" stroke-width="1"/>
<text x="764" y="227" class="" text-anchor="end">0,091</text>
<rect x="774" y="204" width="134" height="34" fill="#fff" stroke="#cad5da" stroke-width="1"/>
<text x="898" y="227" class="" text-anchor="end">9,1 %</text>
<rect x="0" y="238" width="48" height="34" fill="#edf1f3" stroke="#cad5da" stroke-width="1"/>
<text x="24" y="261" class="small" text-anchor="middle">6</text>
<rect x="48" y="238" width="132" height="34" fill="#fff" stroke="#cad5da" stroke-width="1"/>
<text x="170" y="261" class="" text-anchor="end">5</text>
<rect x="180" y="238" width="132" height="34" fill="#fff" stroke="#cad5da" stroke-width="1"/>
<text x="302" y="261" class="" text-anchor="end">6</text>
<rect x="312" y="238" width="194" height="34" fill="#fff" stroke="#cad5da" stroke-width="1"/>
<text x="496" y="261" class="" text-anchor="end">&gt; 5 až 6</text>
<rect x="506" y="238" width="134" height="34" fill="#fff" stroke="#cad5da" stroke-width="1"/>
<text x="630" y="261" class="" text-anchor="end">5</text>
<rect x="640" y="238" width="134" height="34" fill="#fff" stroke="#cad5da" stroke-width="1"/>
<text x="764" y="261" class="" text-anchor="end">0,152</text>
<rect x="774" y="238" width="134" height="34" fill="#fff" stroke="#cad5da" stroke-width="1"/>
<text x="898" y="261" class="" text-anchor="end">15,2 %</text>
<rect x="0" y="272" width="48" height="34" fill="#edf1f3" stroke="#cad5da" stroke-width="1"/>
<text x="24" y="295" class="small" text-anchor="middle">7</text>
<rect x="48" y="272" width="132" height="34" fill="#fff" stroke="#cad5da" stroke-width="1"/>
<text x="170" y="295" class="" text-anchor="end">6</text>
<rect x="180" y="272" width="132" height="34" fill="#fff" stroke="#cad5da" stroke-width="1"/>
<text x="302" y="295" class="" text-anchor="end">7</text>
<rect x="312" y="272" width="194" height="34" fill="#fff" stroke="#cad5da" stroke-width="1"/>
<text x="496" y="295" class="" text-anchor="end">&gt; 6 až 7</text>
<rect x="506" y="272" width="134" height="34" fill="#fff" stroke="#cad5da" stroke-width="1"/>
<text x="630" y="295" class="" text-anchor="end">8</text>
<rect x="640" y="272" width="134" height="34" fill="#fff" stroke="#cad5da" stroke-width="1"/>
<text x="764" y="295" class="" text-anchor="end">0,242</text>
<rect x="774" y="272" width="134" height="34" fill="#fff" stroke="#cad5da" stroke-width="1"/>
<text x="898" y="295" class="" text-anchor="end">24,2 %</text>
<rect x="0" y="306" width="48" height="34" fill="#edf1f3" stroke="#cad5da" stroke-width="1"/>
<text x="24" y="329" class="small" text-anchor="middle">8</text>
<rect x="48" y="306" width="132" height="34" fill="#fff" stroke="#cad5da" stroke-width="1"/>
<text x="170" y="329" class="" text-anchor="end">7</text>
<rect x="180" y="306" width="132" height="34" fill="#fff" stroke="#cad5da" stroke-width="1"/>
<text x="302" y="329" class="" text-anchor="end">8</text>
<rect x="312" y="306" width="194" height="34" fill="#fff" stroke="#cad5da" stroke-width="1"/>
<text x="496" y="329" class="" text-anchor="end">&gt; 7 až 8</text>
<rect x="506" y="306" width="134" height="34" fill="#fff" stroke="#cad5da" stroke-width="1"/>
<text x="630" y="329" class="" text-anchor="end">10</text>
<rect x="640" y="306" width="134" height="34" fill="#fff" stroke="#cad5da" stroke-width="1"/>
<text x="764" y="329" class="" text-anchor="end">0,303</text>
<rect x="774" y="306" width="134" height="34" fill="#fff" stroke="#cad5da" stroke-width="1"/>
<text x="898" y="329" class="" text-anchor="end">30,3 %</text>
<rect x="0" y="340" width="48" height="34" fill="#edf1f3" stroke="#cad5da" stroke-width="1"/>
<text x="24" y="363" class="small" text-anchor="middle">9</text>
<rect x="48" y="340" width="132" height="34" fill="#fff" stroke="#cad5da" stroke-width="1"/>
<text x="170" y="363" class="" text-anchor="end">8</text>
<rect x="180" y="340" width="132" height="34" fill="#fff" stroke="#cad5da" stroke-width="1"/>
<text x="302" y="363" class="" text-anchor="end">9</text>
<rect x="312" y="340" width="194" height="34" fill="#fff" stroke="#cad5da" stroke-width="1"/>
<text x="496" y="363" class="" text-anchor="end">&gt; 8 až 9</text>
<rect x="506" y="340" width="134" height="34" fill="#fff" stroke="#cad5da" stroke-width="1"/>
<text x="630" y="363" class="" text-anchor="end">5</text>
<rect x="640" y="340" width="134" height="34" fill="#fff" stroke="#cad5da" stroke-width="1"/>
<text x="764" y="363" class="" text-anchor="end">0,152</text>
<rect x="774" y="340" width="134" height="34" fill="#fff" stroke="#cad5da" stroke-width="1"/>
<text x="898" y="363" class="" text-anchor="end">15,2 %</text>
<rect x="0" y="374" width="48" height="34" fill="#edf1f3" stroke="#cad5da" stroke-width="1"/>
<text x="24" y="397" class="small" text-anchor="middle">10</text>
<rect x="48" y="374" width="132" height="34" fill="#fff" stroke="#cad5da" stroke-width="1"/>
<text x="170" y="397" class="" text-anchor="end">9</text>
<rect x="180" y="374" width="132" height="34" fill="#fff" stroke="#cad5da" stroke-width="1"/>
<text x="302" y="397" class="" text-anchor="end">10</text>
<rect x="312" y="374" width="194" height="34" fill="#fff" stroke="#cad5da" stroke-width="1"/>
<text x="496" y="397" class="" text-anchor="end">&gt; 9 až 10</text>
<rect x="506" y="374" width="134" height="34" fill="#fff" stroke="#cad5da" stroke-width="1"/>
<text x="630" y="397" class="" text-anchor="end">2</text>
<rect x="640" y="374" width="134" height="34" fill="#fff" stroke="#cad5da" stroke-width="1"/>
<text x="764" y="397" class="" text-anchor="end">0,061</text>
<rect x="774" y="374" width="134" height="34" fill="#fff" stroke="#cad5da" stroke-width="1"/>
<text x="898" y="397" class="" text-anchor="end">6,1 %</text>
<rect x="507" y="205" width="132" height="32" fill="none" stroke="#168154" stroke-width="3"/>
<rect x="49" y="205" width="130" height="32" fill="none" stroke="#267888" stroke-width="3"/>
<rect x="181" y="205" width="130" height="32" fill="none" stroke="#b16a26" stroke-width="3"/>
<text x="16" y="439" class="small" text-anchor="start">Obě podmínky současně: více než dolní mez a nejvýše horní mez.</text>
<text x="16" y="464" class="small" text-anchor="start">Hodnota přesně 5 patří do prvního intervalu. Tři prázdné buňky nejsou započítány.</text>
<rect x="0" y="503" width="908" height="32" fill="#edf1f3" stroke="#cad5da" stroke-width="1"/>
<text x="20" y="525" class="small" text-anchor="start">Data     |     Cetnosti     |     Histogram          Zobrazený list: Histogram</text>
</svg>